<svg viewBox="0 0 420.81 372.61" xmlns="http://www.w3.org/2000/svg"><path d="m14.25 336.97h21.21v.25h-21.21z" fill="#ebebeb"/><path d="m132.93 334.26h84.97v.25h-84.97z" fill="#ebebeb"/><path d="m29.46 346.26h38.11v.25h-38.11z" fill="#ebebeb"/><path d="m368.5 344.58h43.19v.25h-43.19z" fill="#ebebeb"/><path d="m353.26 344.58h11.97v.25h-11.97z" fill="#ebebeb"/><path d="m309.68 340.35h23v.25h-23z" fill="#ebebeb"/><path d="m249.68 340.35h48.44v.25h-48.44z" fill="#ebebeb"/><path d="m198.81 282.85h-193.1a5.71 5.71 0 0 1 -5.71-5.71v-271.43a5.71 5.71 0 0 1 5.71-5.71h193.1a5.71 5.71 0 0 1 5.7 5.71v271.43a5.71 5.71 0 0 1 -5.7 5.71zm-193.1-282.6a5.47 5.47 0 0 0 -5.46 5.46v271.43a5.47 5.47 0 0 0 5.46 5.46h193.1a5.46 5.46 0 0 0 5.45-5.46v-271.43a5.46 5.46 0 0 0 -5.45-5.46z" fill="#ebebeb"/><path d="m415.1 282.85h-193.1a5.71 5.71 0 0 1 -5.7-5.71v-271.43a5.71 5.71 0 0 1 5.7-5.71h193.1a5.71 5.71 0 0 1 5.71 5.71v271.43a5.71 5.71 0 0 1 -5.71 5.71zm-193.1-282.6a5.46 5.46 0 0 0 -5.45 5.46v271.43a5.46 5.46 0 0 0 5.45 5.46h193.1a5.47 5.47 0 0 0 5.46-5.46v-271.43a5.47 5.47 0 0 0 -5.46-5.46z" fill="#ebebeb"/><path d="m36.82 208.93h15.4v118.52h-15.4z" fill="#f0f0f0" transform="matrix(-1 0 0 -1 89.04 536.37)"/><path d="m52.22 208.93h134.79v118.52h-134.79z" fill="#f5f5f5"/><path d="m69.9 253.65h118.34v63.39h-118.34z" fill="#fafafa"/><path d="m69.9 226.06h118.34v20.87h-118.34z" fill="#fafafa"/><path d="m68.84 253.65h1.06v63.39h-1.06z" fill="#e6e6e6" opacity=".7" transform="matrix(-1 0 0 -1 138.74 570.69)"/><path d="m68.84 226.06h1.06v20.87h-1.06z" fill="#e6e6e6" opacity=".7" transform="matrix(-1 0 0 -1 138.74 472.98)"/><path d="m36.82 213.93h150.53v2.68h-150.53z" fill="#e6e6e6" opacity=".7" transform="matrix(-1 0 0 -1 224.17 430.54)"/><path d="m35.02 207.31h17.2v7.75h-17.2z" fill="#f0f0f0" transform="matrix(-1 0 0 -1 87.24 422.36)"/><path d="m52.22 207.31h136.59v7.75h-136.59z" fill="#f5f5f5"/><path d="m92.64 184.55a8.14 8.14 0 0 1 -1.45-4.17 13.16 13.16 0 0 1 .39-4.5 20.86 20.86 0 0 1 4.1-7.9 35.15 35.15 0 0 1 3-3.21c.55-.47 1.1-1 1.66-1.41a18.24 18.24 0 0 1 1.72-1.32 39.85 39.85 0 0 1 3.67-2.27 40.77 40.77 0 0 1 3.93-1.78c-1 1.12-2 2.1-3 3.09s-2 2-3 3-1.87 2-2.84 3c-.46.49-.88 1-1.33 1.52a17.09 17.09 0 0 0 -1.3 1.54 30.77 30.77 0 0 0 -4.23 6.65 17.84 17.84 0 0 0 -1.24 3.74 11.44 11.44 0 0 0 -.08 4.02z" fill="#e6e6e6"/><path d="m69.27 180.36a10.76 10.76 0 0 0 .65-3.71 11.18 11.18 0 0 0 -.13-1.75 12.4 12.4 0 0 0 -.47-1.64 15.56 15.56 0 0 0 -4-5.57c-.43-.42-.93-.78-1.38-1.17a13.29 13.29 0 0 0 -1.42-1.16c-1-.69-1.95-1.52-3-2.17-.53-.35-1.06-.71-1.58-1.08s-1-.74-1.6-1.07c-1.08-.72-2.17-1.42-3.23-2.28a36.57 36.57 0 0 1 3.91.79 13.57 13.57 0 0 1 1.9.61c.63.24 1.25.48 1.86.74l.93.39c.3.14.59.32.89.48.59.32 1.17.67 1.76 1a11.85 11.85 0 0 1 1.64 1.23c.53.44 1.09.83 1.6 1.31a13.67 13.67 0 0 1 4.24 7.36 5.06 5.06 0 0 1 .1 1.1v1.09a8.78 8.78 0 0 1 -.44 2.12 7.52 7.52 0 0 1 -2.23 3.38z" fill="#e6e6e6"/><path d="m70.34 180.36a22.87 22.87 0 0 0 .19-8.06 21.37 21.37 0 0 0 -2.53-7.18l-1-1.65c-.36-.53-.78-1-1.16-1.56l-.58-.8-.66-.73c-.45-.49-.89-1-1.32-1.51-.94-1-1.93-1.89-2.88-2.89a41.37 41.37 0 0 1 -3.07-2.9 40.81 40.81 0 0 1 4 1.56c1.25.7 2.49 1.44 3.68 2.27q.85.69 1.68 1.41l.83.73.74.83c.48.56 1 1.12 1.44 1.7l1.2 1.91a17.1 17.1 0 0 1 2.23 8.66 13.58 13.58 0 0 1 -2.79 8.21z" fill="#e6e6e6"/><path d="m91.37 181.84a38.75 38.75 0 0 1 -5-8.12 53.28 53.28 0 0 1 -3.29-9 44.82 44.82 0 0 1 -1.38-9.52 27.07 27.07 0 0 1 1.45-9.51c.28 3.21.63 6.23 1.15 9.25s1.25 6 2 8.94 1.63 5.92 2.51 8.89 1.73 5.97 2.56 9.07z" fill="#e6e6e6"/><path d="m90.33 181.34a45 45 0 0 1 -6.33-7.58 61.47 61.47 0 0 1 -4.87-8.59 51.33 51.33 0 0 1 -3.27-9.38 30.37 30.37 0 0 1 -.72-9.91c1 3.17 2.05 6.17 3.22 9.13s2.48 5.86 3.79 8.77 2.72 5.78 4.11 8.68 2.74 5.83 4.07 8.88z" fill="#e6e6e6"/><path d="m94.4 185.15a44.68 44.68 0 0 1 -7.87-6 60.74 60.74 0 0 1 -6.67-7.3 51 51 0 0 1 -5.28-8.41 30 30 0 0 1 -2.91-9.5c1.68 2.87 3.37 5.56 5.17 8.19s3.73 5.16 5.65 7.69 4 5 6 7.55 3.96 5.09 5.91 7.78z" fill="#e6e6e6"/><path d="m88.28 180.79a34.46 34.46 0 0 1 -7.56-5.12 46.07 46.07 0 0 1 -6.27-6.67 39.93 39.93 0 0 1 -4.71-7.91 26.5 26.5 0 0 1 -2.23-8.9c1.53 2.68 2.92 5.23 4.54 7.67s3.27 4.81 5 7.12 3.6 4.59 5.48 6.87 3.84 4.55 5.75 6.94z" fill="#e6e6e6"/><path d="m93.16 183.58a10 10 0 0 1 -4.16-6.87 14.42 14.42 0 0 1 1.31-8.16l.41-1 .52-.88 1.11-1.67q.62-.8 1.26-1.56a15.59 15.59 0 0 1 1.33-1.44 34.64 34.64 0 0 1 3-2.58 38.55 38.55 0 0 1 3.34-2.07 38.47 38.47 0 0 1 -2.17 3.22c-.74 1-1.4 2.1-2.13 3.09s-1.3 2.09-2 3.09l-.84 1.59-.44.78-.33.81a17.41 17.41 0 0 0 -1.74 6.65 14.5 14.5 0 0 0 1.53 7z" fill="#e6e6e6"/><path d="m91.31 180.38a16 16 0 0 1 -4.24-7.12 15.79 15.79 0 0 1 -.12-8.6 14.59 14.59 0 0 1 1.76-4 15.16 15.16 0 0 1 2.73-3.32 18 18 0 0 1 7.18-4.12 53.83 53.83 0 0 0 -5.23 5.86 21 21 0 0 0 -1.94 3.13 16.36 16.36 0 0 0 -1.29 3.34 19.54 19.54 0 0 0 -.53 7.22 36.77 36.77 0 0 0 1.68 7.61z" fill="#e6e6e6"/><path d="m86.42 178.02-15.64-15.02.62 14.72z" fill="#e6e6e6"/><path d="m103.52 176.42h-41.57l5.44 30.89h30.69z" fill="#f5f5f5"/><path d="m77.55 176.42h-15.6l5.44 30.89h8.2z" fill="#ebebeb"/><path d="m62.73 21.87h83.91v105.48h-83.91z" fill="#f0f0f0"/><path d="m65.95 21.87h99.22v105.48h-99.22z" fill="#f5f5f5"/><path d="m71.13 33.32h88.86v82.6h-88.86z" fill="#fff" transform="matrix(0 -1 1 0 40.95 190.18)"/><path d="m397.23 327.45h-127.65l-11.33-211.06h127.65z" fill="#ebebeb"/><path d="m401.13 327.45h-127.65l-11.33-211.06h127.65z" fill="#f5f5f5"/><path d="m337.11 305.68h-11.4l.47-167.52h11.39z" fill="#fff"/><path d="m367.26 305.68h-11.39l.46-167.52h11.4z" fill="#fff"/><path d="m306.95 305.68h-11.39l.46-167.52h11.4z" fill="#fff"/><ellipse cx="211.79" cy="361.29" fill="#f5f5f5" rx="193.89" ry="11.32"/><path d="m336.62 250.42h23.58v1h-23.58z" fill="#fdc4bf" transform="matrix(.05477591 -.99849867 .99849867 .05477591 78.8 585.08)"/><path d="m343.74 224.75h12.15v1h-12.15z" fill="#fdc4bf" transform="matrix(.05477591 -.99849867 .99849867 .05477591 105.76 562.21)"/><path d="m328.59 307.57h-117.22a12.88 12.88 0 0 1 -13-13.7l13.5-246.12a14.7 14.7 0 0 1 14.46-13.7h117.27a12.87 12.87 0 0 1 12.95 13.7l-13.5 246.12a14.71 14.71 0 0 1 -14.46 13.7z" fill="#e5c4bd"/><path d="m321.51 307.57h-110.14a12.88 12.88 0 0 1 -13-13.7l13.5-246.12a14.7 14.7 0 0 1 14.46-13.7h110.18a12.86 12.86 0 0 1 12.95 13.7l-13.46 246.12a14.7 14.7 0 0 1 -14.49 13.7z" fill="#fdd9ce" opacity=".8"/><path d="m266.92 78.66h-31.62a5.43 5.43 0 0 1 -5.47-5.78 6.21 6.21 0 0 1 6.1-5.79h31.63a5.44 5.44 0 0 1 5.44 5.79 6.21 6.21 0 0 1 -6.08 5.78z" fill="#fff"/><path d="m273 72.88a11.14 11.14 0 0 1 -11 10.41 9.75 9.75 0 0 1 -9.84-10.41 11.12 11.12 0 0 1 11-10.41 9.76 9.76 0 0 1 9.84 10.41z" fill="#fdc4bf"/><path d="m264.89 115.67h-31.62a5.42 5.42 0 0 1 -5.47-5.78 6.21 6.21 0 0 1 6.1-5.79h31.63a5.44 5.44 0 0 1 5.47 5.79 6.21 6.21 0 0 1 -6.11 5.78z" fill="#fff"/><ellipse cx="246.61" cy="109.89" fill="#fdc4bf" rx="10.7" ry="10.13" transform="matrix(.71678892 -.69729022 .69729022 .71678892 -6.77 203.1)"/><ellipse cx="246.61" cy="109.89" fill="#fdc4bf" opacity=".3" rx="10.7" ry="10.13" transform="matrix(.71678892 -.69729022 .69729022 .71678892 -6.77 203.1)"/><path d="m229.21 189.69h31.62a6.21 6.21 0 0 0 6.11-5.78 5.44 5.44 0 0 0 -5.47-5.79h-31.63a6.21 6.21 0 0 0 -6.1 5.79 5.42 5.42 0 0 0 5.47 5.78z" fill="#fff"/><ellipse cx="234.15" cy="183.91" fill="#f9b5b2" rx="10.7" ry="10.13" transform="matrix(.71678892 -.69729022 .69729022 .71678892 -61.92 215.37)"/><ellipse cx="234.15" cy="183.91" fill="#f9b5b2" opacity=".7" rx="10.7" ry="10.13" transform="matrix(.71678892 -.69729022 .69729022 .71678892 -61.92 215.37)"/><path d="m258.8 226.7h-31.62a5.42 5.42 0 0 1 -5.47-5.78 6.21 6.21 0 0 1 6.1-5.79h31.63a5.43 5.43 0 0 1 5.46 5.79 6.2 6.2 0 0 1 -6.1 5.78z" fill="#fff"/><path d="m264.9 220.92a11.12 11.12 0 0 1 -11 10.41 9.75 9.75 0 0 1 -9.84-10.41 11.13 11.13 0 0 1 11-10.42 9.76 9.76 0 0 1 9.84 10.42z" fill="#fdc4bf"/><path d="m231.24 152.68h31.62a6.21 6.21 0 0 0 6.14-5.78 5.44 5.44 0 0 0 -5.47-5.79h-31.66a6.21 6.21 0 0 0 -6.1 5.79 5.42 5.42 0 0 0 5.47 5.78z" fill="#fff"/><path d="m225.77 146.9a9.75 9.75 0 0 0 9.84 10.41 11.14 11.14 0 0 0 11-10.41 9.77 9.77 0 0 0 -9.85-10.42 11.13 11.13 0 0 0 -10.99 10.42z" fill="#f9b5b2"/><path d="m225.77 146.9a9.75 9.75 0 0 0 9.84 10.41 11.14 11.14 0 0 0 11-10.41 9.77 9.77 0 0 0 -9.85-10.42 11.13 11.13 0 0 0 -10.99 10.42z" fill="#f9b5b2" opacity=".7"/><g fill="#fff"><path d="m336.21 71.14h-46.88a2.17 2.17 0 0 1 -2.19-2.31 2.49 2.49 0 0 1 2.44-2.32h46.88a2.18 2.18 0 0 1 2.19 2.32 2.48 2.48 0 0 1 -2.44 2.31z"/><path d="m320.59 79.24h-31.71a2.17 2.17 0 0 1 -2.18-2.31 2.48 2.48 0 0 1 2.44-2.32h31.7a2.18 2.18 0 0 1 2.16 2.32 2.48 2.48 0 0 1 -2.41 2.31z"/><path d="m322.16 219.18h-41a2.17 2.17 0 0 1 -2.19-2.31 2.49 2.49 0 0 1 2.44-2.32h41a2.18 2.18 0 0 1 2.19 2.32 2.48 2.48 0 0 1 -2.44 2.31z"/><path d="m301 227.28h-20.24a2.18 2.18 0 0 1 -2.19-2.31 2.49 2.49 0 0 1 2.45-2.32h20.23a2.18 2.18 0 0 1 2.19 2.32 2.48 2.48 0 0 1 -2.44 2.31z"/><path d="m334 111.62h-46.89a2.48 2.48 0 0 0 -2.44 2.32 2.17 2.17 0 0 0 2.18 2.31h46.88a2.48 2.48 0 0 0 2.44-2.31 2.18 2.18 0 0 0 -2.17-2.32z"/><path d="m319.26 103.52h-31.71a2.49 2.49 0 0 0 -2.44 2.32 2.17 2.17 0 0 0 2.19 2.31h31.7a2.48 2.48 0 0 0 2.44-2.31 2.18 2.18 0 0 0 -2.18-2.32z"/><path d="m309.31 145.16h-24a2.17 2.17 0 0 1 -2.19-2.31 2.49 2.49 0 0 1 2.44-2.32h24a2.18 2.18 0 0 1 2.19 2.32 2.48 2.48 0 0 1 -2.44 2.31z"/><path d="m332.15 145.16h-14.15a2.17 2.17 0 0 1 -2.18-2.31 2.48 2.48 0 0 1 2.44-2.32h14.14a2.18 2.18 0 0 1 2.19 2.32 2.48 2.48 0 0 1 -2.44 2.31z"/><path d="m316.53 153.26h-31.71a2.17 2.17 0 0 1 -2.18-2.31 2.48 2.48 0 0 1 2.44-2.32h31.7a2.18 2.18 0 0 1 2.22 2.37 2.48 2.48 0 0 1 -2.47 2.26z"/><path d="m276.79 259.74h-54a3 3 0 0 1 -3.05-3.23 3.47 3.47 0 0 1 3.41-3.24h54a3 3 0 0 1 3.05 3.24 3.46 3.46 0 0 1 -3.41 3.23z"/><path d="m324.94 259.74h-33.15a3 3 0 0 1 -3.06-3.23 3.48 3.48 0 0 1 3.42-3.24h33.14a3 3 0 0 1 3.06 3.24 3.46 3.46 0 0 1 -3.41 3.23z"/><path d="m263.29 271.07h-41.1a3 3 0 0 1 -3.06-3.23 3.48 3.48 0 0 1 3.42-3.24h41.09a3 3 0 0 1 3.06 3.24 3.46 3.46 0 0 1 -3.41 3.23z"/><path d="m307.92 282.4h-86.35a3 3 0 0 1 -3.06-3.23 3.48 3.48 0 0 1 3.42-3.24h86.34a3 3 0 0 1 3.06 3.24 3.46 3.46 0 0 1 -3.41 3.23z"/><path d="m296.92 185.64h-13.87a2.49 2.49 0 0 0 -2.45 2.36 2.18 2.18 0 0 0 2.19 2.31h13.88a2.48 2.48 0 0 0 2.44-2.31 2.18 2.18 0 0 0 -2.19-2.36z"/><path d="m321.69 185.64h-16.09a2.48 2.48 0 0 0 -2.44 2.32 2.17 2.17 0 0 0 2.18 2.31h16.09a2.47 2.47 0 0 0 2.44-2.31 2.18 2.18 0 0 0 -2.18-2.32z"/><path d="m315.19 177.54h-31.7a2.49 2.49 0 0 0 -2.44 2.32 2.17 2.17 0 0 0 2.19 2.31h31.7a2.48 2.48 0 0 0 2.44-2.31 2.18 2.18 0 0 0 -2.19-2.32z"/></g><path d="m109.33 116.84c-4.65 2.71-9.45 5.66-13.88 8.62-2.22 1.49-4.39 3-6.38 4.56a44.5 44.5 0 0 0 -5.33 4.69l-.27.28-.13.16a3 3 0 0 0 -.3.4 9.46 9.46 0 0 0 -.58 1.11 16.36 16.36 0 0 0 -.88 2.77 41 41 0 0 0 -.86 6.3c-.3 4.32-.29 8.83-.18 13.24l-6.65.7a62 62 0 0 1 -3.42-13.79 35.74 35.74 0 0 1 -.24-7.27 21.17 21.17 0 0 1 .66-3.91 12.44 12.44 0 0 1 .82-2.14 8.58 8.58 0 0 1 .65-1.16l.4-.6.36-.45a43.75 43.75 0 0 1 6.06-6.25c2.16-1.91 4.45-3.66 6.79-5.36a144.1 144.1 0 0 1 15-9.41z" fill="#fc7262"/><path d="m106.89 104.85c-7.28 3-18.31 10.8-18.31 10.8l13.52 11.35s19.16-8.07 21.49-12.53c3.9-7.47-9.81-12.47-16.7-9.62z" fill="#7a72d9"/><path d="m80.27 157.28 1.65 6.77-9-.91s-1.83-4.6 2.8-6.18z" fill="#b55b52"/><path d="m78.62 168.17-8.05-1.76 2.4-3.27 8.95.91z" fill="#fc7262"/><path d="m161.05 80.93a1.24 1.24 0 0 0 1.19 1.26 1.16 1.16 0 0 0 1.15-1.19 1.26 1.26 0 0 0 -1.2-1.26 1.16 1.16 0 0 0 -1.14 1.19z" fill="#263238"/><path d="m161.91 79.74 2.37-.46s-1.2 1.28-2.37.46z" fill="#263238"/><path d="m161.89 81.61a18.53 18.53 0 0 0 3.62 4.39 5.86 5.86 0 0 1 -3.52.42z" fill="#a02724"/><path d="m162.29 76.36a.67.67 0 0 1 -.28 0 6.46 6.46 0 0 0 -4.23.35.74.74 0 0 1 -.81-.08.33.33 0 0 1 .1-.57 8.09 8.09 0 0 1 5.29-.47c.31.07.47.3.37.51a.54.54 0 0 1 -.44.26z" fill="#263238"/><path d="m132.06 88.27c.65 5.17-1.81 13.64-7.36 16.52 0 0 4.18 5.44 17.59 6.71 14.74 1.39 7.82-4.44 7.82-4.44-7.85-2.1-7-6.25-5-10z" fill="#b55b52"/><path d="m158.24 111.08c7 1.35 14.39 2.63 21.62 3.78q5.46.83 10.93 1.55c3.64.45 7.29.9 10.92 1.23l1.37.13.93.07h2.14c1.54-.06 3.22-.24 4.91-.47 3.4-.48 6.93-1.15 10.44-1.93 7-1.54 14.13-3.4 21.08-5.32l3.16 4.18a178.91 178.91 0 0 1 -20.59 7.92c-3.63 1.11-7.34 2.17-11.35 3a62.69 62.69 0 0 1 -6.33 1c-1.13.11-2.31.18-3.56.21-.63 0-1.34 0-1.93 0l-1.48-.08c-7.9-.36-15.67-1.14-23.34-2.18s-15.17-2.25-22.81-3.88z" fill="#fc7262"/><path d="m240.79 111.81 2.06-4.91 7.58 2s-1.74 7.38-8.24 5.34z" fill="#b55b52"/><path d="m247.33 103.55 7.66.7-4.37 4.47-7.53-2.06z" fill="#fc7262"/><path d="m110.29 350.58 12.19.64 3.63-19.69-12.2-.63z" fill="#fc7262"/><path d="m20.38 312.43 8.28 6.46 23.12-11.24-8.27-6.45z" fill="#fc7262"/><path d="m34.79 322.55a2.12 2.12 0 0 1 -.44-.05c-1.48-.34-2.49-2.27-3-3.39a.16.16 0 0 1 .09-.21.4.4 0 0 1 .32 0c.45.16 4.36 1.66 4.49 2.76a.63.63 0 0 1 -.41.62 2.23 2.23 0 0 1 -1.05.27zm-2.63-3.07c.7 1.48 1.57 2.45 2.37 2.63a1.41 1.41 0 0 0 1-.17c.18-.1.2-.2.19-.27-.07-.58-2.02-1.56-3.56-2.19z" fill="#7a72d9"/><path d="m35.25 319.88a11.83 11.83 0 0 1 -3.74-.65.18.18 0 0 1 -.13-.18.19.19 0 0 1 .14-.17c.13-.05 3.13-1.22 4.8-.82a1.42 1.42 0 0 1 1 .63.58.58 0 0 1 -.22.88 3.82 3.82 0 0 1 -1.85.31zm-3-.83c1.36.41 3.75.6 4.39.22.11-.07.21-.17.06-.42a1 1 0 0 0 -.62-.41 8.76 8.76 0 0 0 -3.78.61z" fill="#7a72d9"/><path d="m32.37 317.94-6.84-8.52a1.17 1.17 0 0 0 -1.2-.32l-10.08 2.72c-1.05.28-1.48 1.25-.89 2 2.45 2.94 3.84 4.27 6.85 8 1.85 2.3 4.69 7.33 6.88 10.64s6.83 2 6.33.5c-2.25-6.79-1.4-10.55-.68-13.48a1.75 1.75 0 0 0 -.37-1.54z" fill="#263238"/><path d="m127.78 351.49a30 30 0 0 1 -3.83-.3.27.27 0 0 1 -.23-.17c0-.09 0-.17.15-.21.56-.2 5.51-1.95 7-1.37a.66.66 0 0 1 .47.54 1 1 0 0 1 -.56 1 6.28 6.28 0 0 1 -3 .51zm-2.86-.59c2.69.31 4.69.23 5.45-.24a.64.64 0 0 0 .36-.65.24.24 0 0 0 -.17-.22c-.81-.31-3.62.43-5.64 1.11z" fill="#7a72d9"/><path d="m124 351.19a.33.33 0 0 1 -.17 0 .17.17 0 0 1 -.12-.18c0-.16.59-3.66 3.31-3.66h.24c.79.05 1 .33 1.07.56.22 1-2.73 2.83-4.22 3.29a.2.2 0 0 1 -.11-.01zm3-3.47c-1.76 0-2.46 2-2.67 2.9 1.52-.63 3.52-2.09 3.39-2.68 0 0 0-.18-.56-.22z" fill="#7a72d9"/><path d="m123.25 350h-13.71a1 1 0 0 0 -1 .58l-1.84 7.62c-.19.79.75 1.54 1.9 1.53 4.78-.06 7.09-.26 13.12-.26 3.71 0 11.37.28 16.49.28s5.53-3.56 3.41-3.89c-9.51-1.44-13.2-3.44-16.35-5.34a4 4 0 0 0 -2.02-.52z" fill="#263238"/><path d="m126.1 331.54-2.01 10.94-12.05-1.42 1.86-10.15z" opacity=".2"/><path d="m43.5 301.2 8.28 6.46-9.57 4.64-8.58-6.31z" opacity=".2"/><path d="m104.14 156.44 49.38 4.66c19.14-48.69 13.49-50 13.49-50s-5-1.72-11.38-3.16l-.68-.15c-3.18-.68-3.85-.77-8.11-1.45-7.29-.9-14.07-1.61-22.42-2.11l-1.59-.09c-1.52-.07-3-.12-4.46-.16-1 0-2 0-2.87 0h-4.82c-4 .06-7.1 2.55-6.64 5.36 4.21 25.57 2.87 34 .1 47.1z" fill="#7a72d9"/><path d="m155 122.11c.34 2.26 7.77 6.39 10.33 5.28.75-2.71 1.29-5 1.67-6.84-3.82-.2-11.12-3.09-12 1.56z" opacity=".2"/><path d="m146.89 110.75c-.36-8 27.23.81 33.56 2.8l-7 13.37s-9.23-.22-15.11-2.61c-6.13-2.48-11.19-7.76-11.45-13.56z" fill="#7a72d9"/><path d="m127.9 78.72c.91 8.46 1 12 7.26 16.45 9.36 6.61 24.08 4.27 26.81-4.14 2.46-7.57.56-20.13-11.4-23.61-11.79-3.42-23.57 2.84-22.67 11.3z" fill="#fc7262"/><path d="m128.92 69.78c-12.09-2.13-12.47 5-12.21 8.76s-8.64 5.56-8.64 10.27c0 6.14 6.59 9.8-9.43 11.66-13.57 1.53-17.75 13.53 2.36 20.45 22.2 7.7 55.71-3.14 51.63-13.45-6.29-15.91 5-15.86 3.71-24.74-.92-6.46 7.77-6.78 4.65-12.17-4.14-7.07-33.14-13.26-32.07-.78z" fill="#3a272e"/><path d="m114.92 81.71c-1.66-6.16-.75-10.24 2.71-12.15 4.45-2.47 11.3-.33 11.59-.24l-.59.91c-.07 0-6.36-2-10.13.11-3 1.67-3.74 5.43-2.18 11.18z" fill="#263238"/><path d="m101.25 98.74a37.84 37.84 0 0 1 -9.11-1.3l.53-.93c.09 0 9.69 2.68 14.12.09 2.16-1.26 2.78-3.62 1.83-7l1.39-.19c1.06 3.79.28 6.48-2.32 8a13 13 0 0 1 -6.44 1.33z" fill="#263238"/><path d="m153 82.12a6 6 0 0 0 1.66 4.48c1.65 1.89 3.89 1.54 4.62-.06a4.49 4.49 0 0 0 -1.6-5.54c-2.19-1.35-4.41-.63-4.68 1.12z" fill="#b55b52"/><path d="m140.49 159.87s-19.18 57-28.14 89.69c-9.45 34.53-65.44 62.7-65.44 62.7l-12.3-8.89s36.06-22.18 45.32-54.37c18.8-65.44 6.07-78.62 24.21-92.51z" fill="#263238"/><path d="m47.95 313.54-15.35-11.1 4.33-3.26 17.82 11.03z" fill="#7a72d9"/><path d="m130.3 172.25c-14.91 9.1-13.3 41.39-11.74 55.94 6.26-20.69 13.78-43.73 18.19-57.06-1.58-.82-3.75-.55-6.45 1.12z" opacity=".2"/><path d="m152.79 161.13s8.63 67.63 3.92 93.43c-4.89 26.83-29.8 85.21-29.8 85.21l-17.59-1.59s14.28-57.86 16.82-84.42c2.77-29-9.51-96-9.51-96z" fill="#263238"/><path d="m130.65 340.48-25.07-2.28.38-5.2 27.2 1.85z" fill="#7a72d9"/><path d="m103.71 154.35-2.71 2.87c-.21.23.16.51.73.56l51.79 4.89c.44 0 .84-.08.89-.27l.92-3c.06-.21-.3-.43-.79-.48l-50-4.71a1.11 1.11 0 0 0 -.83.14z" fill="#5855c6"/><path d="m103.71 154.35-2.71 2.87c-.21.23.16.51.73.56l51.79 4.89c.44 0 .84-.08.89-.27l.92-3c.06-.21-.3-.43-.79-.48l-50-4.71a1.11 1.11 0 0 0 -.83.14z" fill="#5855c6" opacity=".3"/><path d="m109.84 158.89-1.34-.13c-.27 0-.46-.14-.42-.26l1.23-3.95c0-.11.29-.18.55-.16l1.34.13c.27 0 .46.14.42.25l-1.23 3.95c-.04.12-.29.19-.55.17z" fill="#263238"/><path d="m143.66 162.13-1.34-.13c-.26 0-.45-.14-.41-.25l1.23-3.95c0-.11.28-.19.55-.16l1.34.12c.27 0 .45.14.42.26l-1.24 3.98c-.03.08-.28.16-.55.13z" fill="#263238"/></svg>